<svg width="30" height="30" viewBox="0 0 30 30" fill="none" xmlns="http://www.w3.org/2000/svg">
<circle cx="15" cy="15" r="15" fill="#ED2127"/>
<path d="M18.5198 13.8085C18.392 13.1683 18.2643 12.6562 18.008 12.1445C15.448 7.79274 15.448 7.79274 15.448 7.79274C15.3199 7.53687 15.1921 7.15255 15.064 6.76894C15.064 7.02444 15.064 7.02444 15.064 7.02444C14.4242 8.04895 14.4242 9.32861 15.064 10.4809C16.9842 13.9365 16.9842 13.9365 16.9842 13.9365C17.6237 14.9608 17.6237 16.3682 16.9842 17.3924C16.8561 17.6485 16.8561 17.6485 16.8561 17.6485C16.8561 17.2646 16.728 16.8806 16.4722 16.4963C14.6804 13.2964 14.6804 13.2964 14.6804 13.2964C13.5282 11.3766 13.5282 11.3766 13.5282 11.3766C13.2719 10.9926 13.1438 10.6083 13.1438 10.225C13.0161 10.4809 13.0161 10.4809 13.0161 10.4809C12.3759 11.5047 12.3759 12.7847 13.0161 13.9365C15.064 17.3924 15.064 17.3924 15.064 17.3924C15.5761 18.5442 15.5761 19.8242 15.064 20.8481C14.9359 21.1042 14.9359 21.1042 14.9359 21.1042C14.8082 20.7203 14.6804 20.3363 14.552 20.0801C11.9919 15.7284 11.9919 15.7284 11.9919 15.7284C11.608 15.0885 11.4802 14.4483 11.4802 13.8085C8.79195 14.4483 7 15.9843 7 17.6485C7 20.0801 10.584 22 15.064 22C19.4162 22 23 20.0801 23 17.6485C23 15.9843 21.2083 14.4483 18.5198 13.8085Z" fill="white"/>
</svg>
