<svg width="30" height="30" viewBox="0 0 30 30" fill="none" xmlns="http://www.w3.org/2000/svg">
<circle cx="15" cy="15" r="15" fill="#F1F0FF"/>
<path d="M23 14.9567C23 17.6952 20.7852 19.9135 18.0536 19.9135C15.3221 19.9135 13.1072 17.6952 13.1072 14.9567C13.1072 12.2183 15.3186 10 18.0502 10C20.7817 10 23 12.2183 23 14.9567Z" fill="#F79F1A"/>
<path d="M16.8928 14.9567C16.8928 17.6952 14.6779 19.9135 11.9464 19.9135C9.21485 19.9135 7 17.6952 7 14.9567C7 12.2183 9.21485 10 11.9464 10C14.6779 10 16.8928 12.2183 16.8928 14.9567Z" fill="#EA001B"/>
<path d="M14.9983 11.054C13.8443 11.96 13.1038 13.3722 13.1038 14.9567C13.1038 16.5412 13.8443 17.9535 14.9983 18.8594C16.1522 17.9535 16.8928 16.5412 16.8928 14.9567C16.8928 13.3722 16.1522 11.9634 14.9983 11.054Z" fill="#FF5F01"/>
</svg>
