<svg width="30" height="30" viewBox="0 0 30 30" fill="none" xmlns="http://www.w3.org/2000/svg">
<circle cx="15" cy="15" r="15" fill="#FFF200"/>
<path fill-rule="evenodd" clip-rule="evenodd" d="M7 20.778L8.66701 19.667L10.3338 20.778L7 23V20.778ZM23 9.22231L21.3335 10.3333L19.6669 9.22231L23 7.00029V9.22231ZM23 17.6667L15.0003 23L7 17.6667L16.5005 11.3335L18.1669 12.4445L10.5003 17.5555L15.1668 20.6669L17.3334 19.2222L15.6667 18.1115L19.6669 15.4447L23 17.6667ZM7 12.3336L15.0003 7L23 12.3336L13.5001 18.6668L11.8336 17.5555L19.5 12.4445L14.8334 9.33346L12.6669 10.7778L14.3336 11.8888L10.3338 14.5559L7 12.3336Z" fill="#1A5DAD"/>
</svg>
