<svg width="24" height="24" viewBox="0 0 24 24" fill="none" xmlns="http://www.w3.org/2000/svg">
<g clip-path="url(#clip0_70_288)">
<path d="M22.0005 2.21959H18.75V0.739865C18.75 0.33072 18.4147 0 18 0C17.5853 0 17.25 0.33072 17.25 0.739865V2.21959H12.75V0.739865C12.75 0.33072 12.414 0 12 0C11.586 0 11.25 0.33072 11.25 0.739865V2.21959H6.75V0.739865C6.75 0.33072 6.414 0 6 0C5.586 0 5.25 0.33072 5.25 0.739865V2.21959H2.00025C0.8955 2.21959 0 3.10225 0 4.19207V21.7025C0 22.7923 0.8955 23.6757 2.00025 23.6757H22.0005C23.1052 23.6757 24 22.7923 24 21.7025V4.19207C24 3.10225 23.1052 2.21959 22.0005 2.21959ZM22.5 21.7025C22.5 21.9747 22.2757 22.1959 22.0005 22.1959H2.00025C1.72425 22.1959 1.5 21.9747 1.5 21.7025V4.19207C1.5 3.92054 1.72425 3.69932 2.00025 3.69932H5.25V5.17905C5.25 5.5882 5.586 5.91892 6 5.91892C6.414 5.91892 6.75 5.5882 6.75 5.17905V3.69932H11.25V5.17905C11.25 5.5882 11.586 5.91892 12 5.91892C12.414 5.91892 12.75 5.5882 12.75 5.17905V3.69932H17.25V5.17905C17.25 5.5882 17.5853 5.91892 18 5.91892C18.4147 5.91892 18.75 5.5882 18.75 5.17905V3.69932H22.0005C22.2757 3.69932 22.5 3.92054 22.5 4.19207V21.7025Z" fill="#673AB7"/>
<path d="M8.25 8.87838H5.25V11.098H8.25V8.87838Z" fill="#673AB7"/>
<path d="M8.25 12.5777H5.25V14.7973H8.25V12.5777Z" fill="#673AB7"/>
<path d="M8.25 16.277H5.25V18.4966H8.25V16.277Z" fill="#673AB7"/>
<path d="M13.5 16.277H10.5V18.4966H13.5V16.277Z" fill="#673AB7"/>
<path d="M13.5 12.5777H10.5V14.7973H13.5V12.5777Z" fill="#673AB7"/>
<path d="M13.5 8.87838H10.5V11.098H13.5V8.87838Z" fill="#673AB7"/>
<path d="M18.75 16.277H15.75V18.4966H18.75V16.277Z" fill="#673AB7"/>
<path d="M18.75 12.5777H15.75V14.7973H18.75V12.5777Z" fill="#673AB7"/>
<path d="M18.75 8.87838H15.75V11.098H18.75V8.87838Z" fill="#673AB7"/>
</g>
<defs>
<clipPath id="clip0_70_288">
<rect width="24" height="23.6757" fill="white"/>
</clipPath>
</defs>
</svg>
