<svg width="24" height="23" viewBox="0 0 24 23" fill="none" xmlns="http://www.w3.org/2000/svg">
<g clip-path="url(#clip0_70_258)">
<path fill-rule="evenodd" clip-rule="evenodd" d="M23.7589 18.8906C23.7589 20.2174 22.5912 21.2925 21.1502 21.2925H2.36758C0.926533 21.2925 -0.241119 20.2174 -0.241119 18.8906V4.95974C-0.241119 3.89859 0.693315 3.03823 1.84584 3.03823H12.3698L16.5954 1.62881C16.8631 1.53898 17.1594 1.66628 17.257 1.91175L17.702 3.03823H19.585C20.7375 3.03823 21.6719 3.89859 21.6719 4.95974V5.92049C22.8244 5.92049 23.7589 6.78084 23.7589 7.84199V18.8906ZM1.84584 3.99898C1.26984 3.99898 0.802359 4.4294 0.802359 4.95974C0.802359 5.49007 1.26984 5.92049 1.84584 5.92049H3.64323H3.74184C3.74862 5.91809 3.75279 5.9128 3.75958 5.9104L9.48932 3.99898H1.84584ZM17.017 4.08593L16.4629 2.68131H16.4624L15.3923 3.03823H15.3938L12.517 3.99898H12.5118L6.75227 5.92049H17.7411L17.017 4.08593ZM20.6284 4.95974C20.6284 4.4294 20.161 3.99898 19.585 3.99898H18.0808L18.8394 5.92049H20.6284V4.95974ZM21.6719 6.88124H1.84584C1.46392 6.88124 1.11019 6.77988 0.802359 6.61463V18.8906C0.802359 19.6866 1.50358 20.3318 2.36758 20.3318H21.1502C22.0147 20.3318 22.7154 19.6866 22.7154 18.8906V15.528H20.6284C19.4759 15.528 18.5415 14.6677 18.5415 13.6065C18.5415 12.5454 19.4759 11.685 20.6284 11.685H22.7154V7.84199C22.7154 7.31166 22.2479 6.88124 21.6719 6.88124ZM22.7154 14.5673V12.6458H20.6284C20.0524 12.6458 19.585 13.0762 19.585 13.6065C19.585 14.1368 20.0524 14.5673 20.6284 14.5673H22.7154ZM20.6284 13.1261H21.6719V14.0869H20.6284V13.1261Z" fill="#673AB7"/>
</g>
<defs>
<clipPath id="clip0_70_258">
<rect width="24" height="22.0973" fill="white"/>
</clipPath>
</defs>
</svg>
