<svg width="24" height="21" viewBox="0 0 24 21" fill="none" xmlns="http://www.w3.org/2000/svg">
<path d="M6.50551 4.84616H15.9123C16.1722 4.84616 16.383 4.63576 16.383 4.37587C16.383 4.11598 16.1722 3.90492 15.9123 3.90492H6.50551C6.24562 3.90492 6.03522 4.11598 6.03522 4.37587C6.03522 4.63576 6.24562 4.84616 6.50551 4.84616Z" fill="#673AB7"/>
<path d="M17.278 7.1007H8.4624C8.20257 7.1007 7.99181 7.3111 7.99181 7.57099C7.99181 7.83088 8.20257 8.04194 8.4624 8.04194H17.278C17.5378 8.04194 17.7482 7.83088 17.7482 7.57099C17.7482 7.3111 17.5378 7.1007 17.278 7.1007Z" fill="#673AB7"/>
<path d="M14.7674 10.2964H6.50551C6.24562 10.2964 6.03522 10.5068 6.03522 10.7667C6.03522 11.0265 6.24562 11.237 6.50551 11.237H14.7674C15.0269 11.237 15.2377 11.0265 15.2377 10.7667C15.2376 10.5068 15.0269 10.2964 14.7674 10.2964Z" fill="#673AB7"/>
<path d="M20.231 -4.76837e-07H3.1545C1.33545 -4.76837e-07 -0.145111 1.36841 -0.145111 3.05125V12.4419C-0.145111 14.1241 1.33545 15.4925 3.1545 15.4925H13.2247L20.4914 20.5865V15.4836C22.1894 15.36 23.5306 14.043 23.5306 12.4419V3.05125C23.5306 1.36841 22.05 -4.76837e-07 20.231 -4.76837e-07ZM22.119 12.4419C22.119 13.3457 21.2716 14.081 20.2309 14.081H19.0798V17.8731L13.6702 14.081H3.15444C2.11342 14.081 1.26631 13.3457 1.26631 12.4419V3.05125C1.26631 2.14675 2.11342 1.41154 3.15444 1.41154H20.2309C21.2716 1.41154 22.119 2.14681 22.119 3.05125V12.4419Z" fill="#673AB7"/>
</svg>
