<svg width="24" height="24" viewBox="0 0 24 24" fill="none" xmlns="http://www.w3.org/2000/svg">
<g clip-path="url(#clip0_70_251)">
<path fill-rule="evenodd" clip-rule="evenodd" d="M21.6796 20.5518H1.85648C0.704133 20.5518 -0.230164 19.6301 -0.230164 18.4933V5.11338C-0.230164 3.9766 0.704133 3.05493 1.85648 3.05493H21.6796C22.832 3.05493 23.7663 3.9766 23.7663 5.11338V18.4933C23.7663 19.6301 22.832 20.5518 21.6796 20.5518ZM22.723 5.11338C22.723 4.54525 22.2555 4.08416 21.6796 4.08416H1.85648C1.28057 4.08416 0.81316 4.54525 0.81316 5.11338V18.4933C0.81316 19.0614 1.28057 19.5225 1.85648 19.5225H21.6796C22.2555 19.5225 22.723 19.0614 22.723 18.4933V5.11338ZM20.8105 17.3174L17.5063 14.0579L15.6184 15.9202L17.3577 17.636C17.5564 17.832 17.5564 18.1501 17.3577 18.3466C17.1584 18.5427 16.836 18.5427 16.6372 18.3466L9.15975 10.9702L2.72557 17.3174C2.52682 17.5135 2.20443 17.5135 2.00516 17.3174C1.8064 17.1208 1.8064 16.8028 2.00516 16.6067L8.7372 9.96566C8.7539 9.94096 8.76485 9.91369 8.78676 9.89156C8.88953 9.79018 9.02516 9.74386 9.15975 9.74695C9.29434 9.74386 9.42997 9.79018 9.53274 9.89156C9.55465 9.91369 9.56508 9.94096 9.5823 9.96566L14.898 15.2096L17.0838 13.0533C17.101 13.0291 17.1114 13.0014 17.1334 12.9792C17.2361 12.8784 17.3717 12.8315 17.5063 12.8346C17.6409 12.8315 17.7766 12.8784 17.8793 12.9792C17.9012 13.0014 17.9117 13.0291 17.9289 13.0533L21.531 16.6067C21.7297 16.8028 21.7297 17.1208 21.531 17.3174C21.3317 17.5135 21.0093 17.5135 20.8105 17.3174ZM14.3764 9.23028C13.224 9.23028 12.2897 8.30861 12.2897 7.17183C12.2897 6.03505 13.224 5.11338 14.3764 5.11338C15.5287 5.11338 16.463 6.03505 16.463 7.17183C16.463 8.30861 15.5287 9.23028 14.3764 9.23028ZM14.3764 6.14261C13.8005 6.14261 13.333 6.6037 13.333 7.17183C13.333 7.73996 13.8005 8.20106 14.3764 8.20106C14.9523 8.20106 15.4197 7.73996 15.4197 7.17183C15.4197 6.6037 14.9523 6.14261 14.3764 6.14261Z" fill="#673AB7"/>
</g>
<defs>
<clipPath id="clip0_70_251">
<rect width="24" height="23.6757" fill="white"/>
</clipPath>
</defs>
</svg>
