<svg width="30" height="30" viewBox="0 0 30 30" fill="none" xmlns="http://www.w3.org/2000/svg">
<circle cx="15" cy="15" r="15" fill="#673AB7"/>
<path d="M22.7567 11.7308H7.74498C6.98189 11.7308 6.94309 12.1454 6.9862 12.6548L7.54666 20.9029C7.58546 21.4078 7.69755 21.8269 8.45633 21.8269H22.0885C22.8645 21.8269 22.9551 21.4123 22.9982 20.9029L23.5198 12.5511C23.5586 12.0463 23.5198 11.7308 22.7567 11.7308Z" fill="white"/>
<path d="M22.5886 9.53577C22.5671 8.97688 22.3946 8.84617 21.9376 8.84617C21.9376 8.84617 16.7038 8.84617 15.7639 8.84617C14.8241 8.84617 14.712 8.85969 14.0006 8.06192C13.41 7.39485 13.6428 7.40386 12.4227 7.40386C11.4484 7.40386 9.17634 7.40386 9.17634 7.40386C8.42618 7.40386 8.15888 7.33625 8.0899 8.15206C8.02523 8.90476 7.87434 10.7302 7.85278 11.0096H22.6576L22.5886 9.53577Z" fill="white"/>
</svg>
