<svg width="34" height="33" viewBox="0 0 34 33" fill="none" xmlns="http://www.w3.org/2000/svg">
<path d="M33.7429 16.4706C33.7429 25.451 26.2397 32.7412 16.9714 32.7412C7.70313 32.7412 0.2 25.451 0.2 16.4706C0.2 7.4902 7.70313 0.2 16.9714 0.2C26.2397 0.2 33.7429 7.4902 33.7429 16.4706Z" fill="#F1F0FF" stroke="#673AB7" stroke-width="0.4"/>
<path d="M25.1001 20.1874C24.8049 20.8682 24.4554 21.4949 24.0504 22.0712C23.4985 22.8567 23.0466 23.4004 22.6983 23.7024C22.1585 24.198 21.58 24.4518 20.9606 24.4663C20.5159 24.4663 19.9796 24.34 19.3554 24.0838C18.7291 23.8287 18.1536 23.7024 17.6273 23.7024C17.0754 23.7024 16.4834 23.8287 15.8503 24.0838C15.2161 24.34 14.7053 24.4735 14.3147 24.4868C13.7207 24.5119 13.1287 24.2509 12.5377 23.7024C12.1605 23.374 11.6887 22.8109 11.1235 22.0135C10.5171 21.1617 10.0186 20.1741 9.62798 19.0482C9.20969 17.832 9 16.6543 9 15.5141C9 14.2081 9.28272 13.0817 9.84899 12.1377C10.294 11.3795 10.8861 10.7814 11.6271 10.3423C12.3681 9.90323 13.1688 9.67947 14.031 9.66515C14.5028 9.66515 15.1215 9.81084 15.8904 10.0971C16.6571 10.3844 17.1493 10.5301 17.3652 10.5301C17.5265 10.5301 18.0734 10.3597 19.0005 10.0202C19.8772 9.70522 20.6171 9.57482 21.2233 9.62618C22.8658 9.75851 24.0999 10.4049 24.9205 11.5693C23.4515 12.4578 22.7249 13.7023 22.7393 15.2987C22.7526 16.5422 23.2045 17.577 24.0927 18.3986C24.4951 18.7799 24.9447 19.0746 25.4447 19.2839C25.3364 19.5979 25.2218 19.8987 25.1001 20.1874ZM21.333 5.38988C21.333 6.36452 20.9762 7.27454 20.2652 8.11685C19.4072 9.11817 18.3694 9.6968 17.2439 9.6055C17.2296 9.48857 17.2213 9.36551 17.2213 9.23619C17.2213 8.30054 17.6293 7.2992 18.354 6.48047C18.7157 6.06594 19.1758 5.72126 19.7338 5.4463C20.2906 5.17544 20.8172 5.02565 21.3125 5C21.3269 5.13029 21.333 5.2606 21.333 5.38987V5.38988Z" fill="#673AB7"/>
</svg>
