<svg width="34" height="33" viewBox="0 0 34 33" fill="none" xmlns="http://www.w3.org/2000/svg">
<path d="M33.7429 16.4706C33.7429 25.451 26.2397 32.7412 16.9714 32.7412C7.70313 32.7412 0.2 25.451 0.2 16.4706C0.2 7.4902 7.70313 0.2 16.9714 0.2C26.2397 0.2 33.7429 7.4902 33.7429 16.4706Z" fill="#F1F0FF" stroke="#673AB7" stroke-width="0.4"/>
<path d="M17.3044 26.0766C22.6956 26.0766 27.066 21.714 27.066 16.3324C27.066 10.9509 22.6956 6.58824 17.3044 6.58824C11.9133 6.58824 7.54285 10.9509 7.54285 16.3324C7.54285 21.714 11.9133 26.0766 17.3044 26.0766Z" fill="#673AB7"/>
<path d="M21.1044 19.1498L21.5368 16.3325H18.8297V14.5045C18.8297 13.7344 19.2072 12.9821 20.4207 12.9821H21.6521V10.5841C21.6521 10.5841 20.5347 10.3936 19.4667 10.3936C17.2373 10.3936 15.7795 11.742 15.7795 14.1852V16.3325H13.3003V19.1498H15.7795V25.9588C16.2764 26.0369 16.7857 26.0767 17.3046 26.0767C17.8235 26.0767 18.3328 26.0356 18.8297 25.9588V19.1498H21.1044Z" fill="#F1F0FF"/>
</svg>
