<svg width="33" height="33" viewBox="0 0 33 33" fill="none" xmlns="http://www.w3.org/2000/svg">
<g clip-path="url(#clip0_50_64)">
<path d="M32.8 16.4706C32.8 25.4562 25.5026 32.7412 16.5 32.7412C7.49742 32.7412 0.2 25.4562 0.2 16.4706C0.2 7.48493 7.49742 0.2 16.5 0.2C25.5026 0.2 32.8 7.48493 32.8 16.4706Z" fill="#F1F0FF" stroke="#673AB7" stroke-width="0.4"/>
<g clip-path="url(#clip1_50_64)">
<path d="M26.7895 17.0673C26.7895 16.2575 26.7221 15.6666 26.5764 15.0538H17.0972V18.7086H22.6612C22.5491 19.6169 21.9433 20.9847 20.5972 21.9039L20.5783 22.0262L23.5754 24.2911L23.7831 24.3113C25.6901 22.5933 26.7895 20.0655 26.7895 17.0673Z" fill="#4527A0"/>
<path d="M17.0972 26.6968C19.8231 26.6968 22.1115 25.8214 23.7831 24.3113L20.5971 21.9039C19.7446 22.4838 18.6003 22.8887 17.0972 22.8887C14.4273 22.8887 12.1613 21.1708 11.3535 18.7962L11.2351 18.806L8.11864 21.1587L8.07788 21.2692C9.73812 24.4863 13.1484 26.6968 17.0972 26.6968Z" fill="#5E35B1"/>
<path d="M11.3536 18.7962C11.1405 18.1834 11.0171 17.5268 11.0171 16.8484C11.0171 16.1699 11.1405 15.5134 11.3424 14.9006L11.3368 14.7701L8.18124 12.3796L8.078 12.4275C7.39373 13.7625 7.0011 15.2617 7.0011 16.8484C7.0011 18.4351 7.39373 19.9342 8.078 21.2692L11.3536 18.7962Z" fill="#4527A0"/>
<path d="M17.0972 10.808C18.993 10.808 20.2718 11.6068 21.001 12.2744L23.8504 9.56058C22.1004 7.9739 19.8231 7 17.0972 7C13.1484 7 9.73813 9.2104 8.07788 12.4275L11.3423 14.9006C12.1613 12.526 14.4273 10.808 17.0972 10.808Z" fill="#673AB7"/>
</g>
</g>
<defs>
<clipPath id="clip0_50_64">
<rect width="33" height="33" fill="white"/>
</clipPath>
<clipPath id="clip1_50_64">
<rect width="19.8" height="19.7647" fill="white" transform="translate(7 7)"/>
</clipPath>
</defs>
</svg>
