<svg width="99" height="82" viewBox="0 0 99 82" fill="none" xmlns="http://www.w3.org/2000/svg">
<path d="M18.6303 14.0806C18.6303 10.6674 18.6303 8.20737 18.6303 6.87678C23.6856 8.26698 36.8673 9.03792 49.1517 1C52.8167 4.03318 64.0142 9.45498 79.4834 6.87678V14.0806M18.6303 14.0806H7.06635M18.6303 14.0806C18.6303 16.2412 18.6303 18.7837 18.6303 21.6635M18.6303 21.6635H1M18.6303 21.6635C18.6303 23.873 18.6303 26.281 18.6303 28.8673M18.6303 28.8673C18.6303 30.7357 18.6303 32.6972 18.6303 34.7441C18.6303 35.3202 18.6435 35.889 18.669 36.4502M18.6303 28.8673H7.06635M18.669 36.4502H1M18.669 36.4502C18.7985 39.3043 19.2475 41.9642 19.9121 44.4123M19.9121 44.4123C22.3851 53.5218 27.8447 59.6998 30.9526 62.0427L41.3791 72.2796H57.1137L66.9716 62.0427C72.9317 56.7052 76.2264 50.0633 77.9191 44.4123M19.9121 44.4123H7.06635M79.4834 14.0806H91.8057M79.4834 14.0806V21.6635M79.4834 21.6635H97.4929M79.4834 21.6635V28.2038M79.4834 28.2038V34.7441C79.4894 35.2478 79.4731 35.8197 79.43 36.4502M79.4834 28.2038H91.8057M79.43 36.4502H97.4929M79.43 36.4502C79.2852 38.5669 78.8384 41.3435 77.9191 44.4123M77.9191 44.4123H91.8057M24.8863 34.7441V14.0806C30.3207 14.2701 42.782 13.436 49.1517 8.58294C51.8689 10.921 60.4123 15.2938 72.8483 14.0806V37.5877C72.9747 40.1785 72.2417 46.346 68.2986 50.2891L58.2512 59.9573M34.7441 76.4502H73.4171M25.8341 81H41.3791M54.4597 81H86.3081" stroke="#673AB7" stroke-width="2" stroke-linecap="round" stroke-linejoin="round"/>
<circle cx="49.1517" cy="34.5545" r="13.0284" stroke="#673AB7" stroke-width="2"/>
<path d="M48.9492 40.5041C48.015 40.5041 47.2029 40.3661 46.5128 40.09C45.8228 39.8034 45.1858 39.3522 44.6019 38.7365L46.5288 36.746C46.9322 37.1388 47.3515 37.4413 47.7868 37.6536C48.222 37.8554 48.6944 37.9562 49.204 37.9562C49.6287 37.9562 49.9471 37.8925 50.1595 37.7651C50.3718 37.6271 50.4779 37.4413 50.4779 37.2078C50.4779 36.9742 50.3824 36.7831 50.1913 36.6345C50.0108 36.4753 49.7667 36.3372 49.4588 36.2205C49.1615 36.0931 48.8324 35.9657 48.4715 35.8383C48.1106 35.7109 47.7496 35.557 47.3887 35.3765C47.0277 35.196 46.6933 34.9784 46.3854 34.7236C46.0882 34.4582 45.844 34.1344 45.6529 33.7522C45.4725 33.3594 45.3822 32.8817 45.3822 32.319C45.3822 31.5865 45.5521 30.9549 45.8918 30.4241C46.2315 29.8933 46.7092 29.4899 47.325 29.2138C47.9407 28.9272 48.6626 28.7839 49.4906 28.7839C50.3081 28.7839 51.0671 28.9219 51.7678 29.1979C52.4791 29.4633 53.063 29.8455 53.5195 30.3445L51.5767 32.335C51.2476 31.9953 50.9132 31.7458 50.5735 31.5865C50.2338 31.4167 49.8622 31.3318 49.4588 31.3318C49.1403 31.3318 48.8855 31.3848 48.6944 31.491C48.5034 31.5972 48.4078 31.7564 48.4078 31.9687C48.4078 32.1917 48.498 32.3774 48.6785 32.5261C48.8696 32.6641 49.1138 32.7915 49.411 32.9082C49.7189 33.025 50.0533 33.1471 50.4143 33.2745C50.7752 33.4019 51.1361 33.5558 51.4971 33.7363C51.858 33.9062 52.1871 34.1291 52.4844 34.4051C52.7923 34.6705 53.0364 35.0049 53.2169 35.4083C53.408 35.8118 53.5035 36.3001 53.5035 36.8734C53.5035 38.0305 53.1054 38.9276 52.3092 39.5645C51.5236 40.1909 50.4036 40.5041 48.9492 40.5041ZM48.153 38.7683H50.3824V41.9372H48.153V38.7683ZM50.3824 30.1215H48.153V27.3507H50.3824V30.1215Z" fill="#673AB7"/>
<circle cx="26.5924" cy="62.0426" r="12.4597" fill="white" stroke="#673AB7" stroke-width="2"/>
<path d="M24.1281 64.8863H20.1471V59.5782H17.3035L22.0428 54.6493L27.1613 59.5782H24.1281V64.8863Z" stroke="#673AB7" stroke-linejoin="round"/>
<path d="M32.6588 59.3886H28.6777V64.6967H25.8341L30.5734 69.6256L35.6919 64.6967H32.6588V59.3886Z" stroke="#673AB7" stroke-linejoin="round"/>
</svg>
